<?xml version="1.0" encoding="UTF-8"?>
<!DOCTYPE svg PUBLIC "-//W3C//DTD SVG 1.1//EN" "http://www.w3.org/Graphics/SVG/1.1/DTD/svg11.dtd">
<svg xmlns="http://www.w3.org/2000/svg" version="1.1" width="114px" height="112px" style="shape-rendering:geometricPrecision; text-rendering:geometricPrecision; image-rendering:optimizeQuality; fill-rule:evenodd; clip-rule:evenodd" xmlns:xlink="http://www.w3.org/1999/xlink">
<g><path style="opacity:0.555" fill="#f0af8d" d="M 89.5,15.5 C 67.4975,15.3334 45.4975,15.5 23.5,16C 20.5519,17.2373 17.8852,18.7373 15.5,20.5C 11.7781,23.5552 8.44477,26.8885 5.5,30.5C 8.74721,22.7558 14.4139,17.5891 22.5,15C 43.8209,13.7076 65.1542,13.3743 86.5,14C 87.7375,14.2321 88.7375,14.7321 89.5,15.5 Z"/></g>
<g><path style="opacity:1" fill="#ee7536" d="M 89.5,15.5 C 89.5,16.1667 89.1667,16.5 88.5,16.5C 67.4974,16.3334 46.4974,16.5 25.5,17C 22.2561,18.4699 18.9228,19.6366 15.5,20.5C 17.8852,18.7373 20.5519,17.2373 23.5,16C 45.4975,15.5 67.4975,15.3334 89.5,15.5 Z"/></g>
<g><path style="opacity:1" fill="#fd7025" d="M 88.5,16.5 C 90.8478,18.0972 93.5145,19.0972 96.5,19.5C 96.7329,21.0618 97.3995,22.3951 98.5,23.5C 98.5394,24.5832 98.8728,25.5832 99.5,26.5C 89.3414,27.1667 79.3414,27.8334 69.5,28.5C 68.8333,28.5 68.5,28.8333 68.5,29.5C 65.7718,29.1706 63.4385,29.8372 61.5,31.5C 60.8333,31.5 60.1667,31.5 59.5,31.5C 56.1226,31.0679 53.1226,31.7345 50.5,33.5C 49.791,34.404 48.791,34.7373 47.5,34.5C 40.6608,35.8905 33.9941,37.8905 27.5,40.5C 25.1155,40.5567 22.7822,40.2234 20.5,39.5C 19.0337,40.1355 17.7003,40.9688 16.5,42C 18.2705,42.5354 18.6039,43.3687 17.5,44.5C 15.9291,43.6906 14.2624,43.3573 12.5,43.5C 12.5,44.8333 12.5,46.1667 12.5,47.5C 9.51228,47.6714 7.51228,46.3381 6.5,43.5C 5.91395,43.7093 5.41395,44.0426 5,44.5C 4.61239,41.1508 4.77906,37.8175 5.5,34.5C 5.5,33.1667 5.5,31.8333 5.5,30.5C 8.44477,26.8885 11.7781,23.5552 15.5,20.5C 18.9228,19.6366 22.2561,18.4699 25.5,17C 46.4974,16.5 67.4974,16.3334 88.5,16.5 Z"/></g>
<g><path style="opacity:1" fill="#f29e6b" d="M 89.5,15.5 C 92.3311,16.0787 94.6644,17.412 96.5,19.5C 93.5145,19.0972 90.8478,18.0972 88.5,16.5C 89.1667,16.5 89.5,16.1667 89.5,15.5 Z"/></g>
<g><path style="opacity:0.725" fill="#f0b090" d="M 96.5,19.5 C 98.914,20.9108 100.581,22.9108 101.5,25.5C 100.5,24.8333 99.5,24.1667 98.5,23.5C 97.3995,22.3951 96.7329,21.0618 96.5,19.5 Z"/></g>
<g><path style="opacity:1" fill="#e97839" d="M 98.5,23.5 C 99.5,24.1667 100.5,24.8333 101.5,25.5C 101.5,26.5 101.5,27.5 101.5,28.5C 90.8333,28.5 80.1667,28.5 69.5,28.5C 79.3414,27.8334 89.3414,27.1667 99.5,26.5C 98.8728,25.5832 98.5394,24.5832 98.5,23.5 Z"/></g>
<g><path style="opacity:0.303" fill="#f9b189" d="M 101.5,25.5 C 103.104,26.287 103.771,27.6203 103.5,29.5C 94.5,29.5 85.5,29.5 76.5,29.5C 73.8333,29.5 71.1667,29.5 68.5,29.5C 68.5,28.8333 68.8333,28.5 69.5,28.5C 80.1667,28.5 90.8333,28.5 101.5,28.5C 101.5,27.5 101.5,26.5 101.5,25.5 Z"/></g>
<g><path style="opacity:0.153" fill="#f8c9ab" d="M 68.5,29.5 C 71.1667,29.5 73.8333,29.5 76.5,29.5C 71.6804,30.4865 66.6804,31.1532 61.5,31.5C 63.4385,29.8372 65.7718,29.1706 68.5,29.5 Z"/></g>
<g><path style="opacity:0.647" fill="#f2ab88" d="M 59.5,31.5 C 56.7814,32.913 53.7814,33.5797 50.5,33.5C 53.1226,31.7345 56.1226,31.0679 59.5,31.5 Z"/></g>
<g><path style="opacity:0.431" fill="#f6b191" d="M 5.5,30.5 C 5.5,31.8333 5.5,33.1667 5.5,34.5C 4.83333,35.1667 4.16667,35.8333 3.5,36.5C 3.25939,34.1016 3.92606,32.1016 5.5,30.5 Z"/></g>
<g><path style="opacity:0.176" fill="#f8b999" d="M 47.5,34.5 C 40.3063,37.3444 32.9729,40.011 25.5,42.5C 26.1667,41.8333 26.8333,41.1667 27.5,40.5C 33.9941,37.8905 40.6608,35.8905 47.5,34.5 Z"/></g>
<g><path style="opacity:0.188" fill="#fbc4a1" d="M 23.5,43.5 C 22.713,45.1042 21.3797,45.7709 19.5,45.5C 20.5137,44.3263 21.847,43.6596 23.5,43.5 Z"/></g>
<g><path style="opacity:0.976" fill="#f2a883" d="M 102.5,49.5 C 102.5,47.8333 102.5,46.1667 102.5,44.5C 94.8166,44.5234 87.1499,44.8567 79.5,45.5C 87.6306,43.0548 95.9639,42.3881 104.5,43.5C 104.741,45.8984 104.074,47.8984 102.5,49.5 Z"/></g>
<g><path style="opacity:1" fill="#f1793d" d="M 102.5,49.5 C 102.461,50.5832 102.127,51.5832 101.5,52.5C 102.193,53.5178 102.859,54.5178 103.5,55.5C 103.5,56.1667 103.5,56.8333 103.5,57.5C 102.533,56.1938 101.199,55.5271 99.5,55.5C 99.1667,53.5 98.8333,51.5 98.5,49.5C 99.5,49.5 100.5,49.5 101.5,49.5C 101.5,48.1667 101.5,46.8333 101.5,45.5C 94.1605,45.7228 86.8271,46.0561 79.5,46.5C 79.5,46.1667 79.5,45.8333 79.5,45.5C 87.1499,44.8567 94.8166,44.5234 102.5,44.5C 102.5,46.1667 102.5,47.8333 102.5,49.5 Z"/></g>
<g><path style="opacity:1" fill="#f97c3d" d="M 5.5,34.5 C 4.77906,37.8175 4.61239,41.1508 5,44.5C 5.41395,44.0426 5.91395,43.7093 6.5,43.5C 7.51228,46.3381 9.51228,47.6714 12.5,47.5C 12.5,46.1667 12.5,44.8333 12.5,43.5C 14.2624,43.3573 15.9291,43.6906 17.5,44.5C 18.6039,43.3687 18.2705,42.5354 16.5,42C 17.7003,40.9688 19.0337,40.1355 20.5,39.5C 22.7822,40.2234 25.1155,40.5567 27.5,40.5C 26.8333,41.1667 26.1667,41.8333 25.5,42.5C 25.1583,43.3382 24.4916,43.6716 23.5,43.5C 21.847,43.6596 20.5137,44.3263 19.5,45.5C 17.0301,45.6535 15.0301,46.6535 13.5,48.5C 11.0107,48.2407 9.34399,49.2407 8.5,51.5C 5.59997,51.5922 3.93331,50.2589 3.5,47.5C 2.16667,43.8333 2.16667,40.1667 3.5,36.5C 4.16667,35.8333 4.83333,35.1667 5.5,34.5 Z"/></g>
<g><path style="opacity:1" fill="#fe7024" d="M 103.5,57.5 C 104.833,58.1667 105.833,59.1667 106.5,60.5C 106.5,66.8333 106.5,73.1667 106.5,79.5C 104.155,83.5275 101.822,87.5275 99.5,91.5C 97.5956,91.7376 96.2623,92.7376 95.5,94.5C 93.2495,94.1814 91.2495,94.6814 89.5,96C 65.5023,96.5 41.5023,96.6666 17.5,96.5C 14.266,95.9944 13.5993,94.3278 15.5,91.5C 19.1667,87.5 22.8333,83.5 26.5,79.5C 34.4636,73.5374 42.1302,67.2041 49.5,60.5C 51.0269,60.573 52.0269,59.9063 52.5,58.5C 54.0269,58.573 55.0269,57.9063 55.5,56.5C 58.8573,56.7841 61.1906,55.4507 62.5,52.5C 68.2476,50.7959 73.9143,48.7959 79.5,46.5C 86.8271,46.0561 94.1605,45.7228 101.5,45.5C 101.5,46.8333 101.5,48.1667 101.5,49.5C 100.5,49.5 99.5,49.5 98.5,49.5C 98.8333,51.5 99.1667,53.5 99.5,55.5C 101.199,55.5271 102.533,56.1938 103.5,57.5 Z"/></g>
<g><path style="opacity:0.231" fill="#f7c7af" d="M 19.5,45.5 C 17.7952,47.1921 15.7952,48.5254 13.5,49.5C 13.5,49.1667 13.5,48.8333 13.5,48.5C 15.0301,46.6535 17.0301,45.6535 19.5,45.5 Z"/></g>
<g><path style="opacity:0.349" fill="#f2bb9e" d="M 3.5,47.5 C 3.93331,50.2589 5.59997,51.5922 8.5,51.5C 7.57286,53.4759 6.23953,53.8092 4.5,52.5C 3.69063,50.9291 3.35729,49.2624 3.5,47.5 Z"/></g>
<g><path style="opacity:1" fill="#f09c71" d="M 13.5,48.5 C 13.5,48.8333 13.5,49.1667 13.5,49.5C 11.9505,50.4408 10.2838,51.1075 8.5,51.5C 9.34399,49.2407 11.0107,48.2407 13.5,48.5 Z"/></g>
<g><path style="opacity:1" fill="#eea27b" d="M 79.5,45.5 C 79.5,45.8333 79.5,46.1667 79.5,46.5C 73.9143,48.7959 68.2476,50.7959 62.5,52.5C 67.5382,48.8196 73.2049,46.4862 79.5,45.5 Z"/></g>
<g><path style="opacity:1" fill="#f09064" d="M 62.5,52.5 C 61.1906,55.4507 58.8573,56.7841 55.5,56.5C 57.3356,54.412 59.6689,53.0787 62.5,52.5 Z"/></g>
<g><path style="opacity:0.953" fill="#f1a885" d="M 103.5,55.5 C 105.587,56.5846 106.92,58.2512 107.5,60.5C 107.167,60.5 106.833,60.5 106.5,60.5C 105.833,59.1667 104.833,58.1667 103.5,57.5C 103.5,56.8333 103.5,56.1667 103.5,55.5 Z"/></g>
<g><path style="opacity:0.847" fill="#f7ac8f" d="M 55.5,56.5 C 55.0269,57.9063 54.0269,58.573 52.5,58.5C 52.9731,57.0937 53.9731,56.427 55.5,56.5 Z"/></g>
<g><path style="opacity:0.824" fill="#f1aa86" d="M 52.5,58.5 C 52.0269,59.9063 51.0269,60.573 49.5,60.5C 49.9731,59.0937 50.9731,58.427 52.5,58.5 Z"/></g>
<g><path style="opacity:0.161" fill="#fdc8a6" d="M 107.5,60.5 C 109.019,63.5256 109.685,66.8589 109.5,70.5C 109.497,73.0254 109.163,75.3587 108.5,77.5C 108.5,77.1667 108.5,76.8333 108.5,76.5C 108.608,71.1301 108.275,65.7968 107.5,60.5 Z"/></g>
<g><path style="opacity:1" fill="#ea7739" d="M 106.5,60.5 C 106.833,60.5 107.167,60.5 107.5,60.5C 108.275,65.7968 108.608,71.1301 108.5,76.5C 107.833,77.5 107.167,78.5 106.5,79.5C 106.5,73.1667 106.5,66.8333 106.5,60.5 Z"/></g>
<g><path style="opacity:0.757" fill="#f1a883" d="M 49.5,60.5 C 42.1302,67.2041 34.4636,73.5374 26.5,79.5C 30.6639,74.5032 35.3306,70.0032 40.5,66C 43.2223,63.6422 46.2223,61.8089 49.5,60.5 Z"/></g>
<g><path style="opacity:0.427" fill="#fac0a4" d="M 26.5,79.5 C 22.8333,83.5 19.1667,87.5 15.5,91.5C 15.1667,91.5 14.8333,91.5 14.5,91.5C 17.5,86.5 21.5,82.5 26.5,79.5 Z"/></g>
<g><path style="opacity:0.886" fill="#eea47d" d="M 108.5,76.5 C 108.5,76.8333 108.5,77.1667 108.5,77.5C 107.468,83.5952 104.468,88.2618 99.5,91.5C 101.822,87.5275 104.155,83.5275 106.5,79.5C 107.167,78.5 107.833,77.5 108.5,76.5 Z"/></g>
<g><path style="opacity:0.243" fill="#f5b091" d="M 99.5,91.5 C 98.7377,93.2624 97.4044,94.2624 95.5,94.5C 96.2623,92.7376 97.5956,91.7376 99.5,91.5 Z"/></g>
<g><path style="opacity:0.627" fill="#e7b8a0" d="M 12.5,93.5 C 12.5569,94.609 12.8902,95.609 13.5,96.5C 11.4482,95.9473 11.1148,94.9473 12.5,93.5 Z"/></g>
<g><path style="opacity:1" fill="#f27532" d="M 95.5,94.5 C 95.5,95.1667 95.1667,95.5 94.5,95.5C 92.6203,95.2291 91.287,95.8958 90.5,97.5C 65.9943,97.831 41.6609,97.4976 17.5,96.5C 41.5023,96.6666 65.5023,96.5 89.5,96C 91.2495,94.6814 93.2495,94.1814 95.5,94.5 Z"/></g>
<g><path style="opacity:0.078" fill="#f5bf9e" d="M 94.5,95.5 C 93.4863,96.6737 92.153,97.3404 90.5,97.5C 91.287,95.8958 92.6203,95.2291 94.5,95.5 Z"/></g>
<g><path style="opacity:0.986" fill="#ec9b74" d="M 14.5,91.5 C 14.8333,91.5 15.1667,91.5 15.5,91.5C 13.5993,94.3278 14.266,95.9944 17.5,96.5C 41.6609,97.4976 65.9943,97.831 90.5,97.5C 89.3915,98.29 88.0581,98.79 86.5,99C 63.5,99.6667 40.5,99.6667 17.5,99C 15.9336,98.3918 14.6002,97.5585 13.5,96.5C 12.8902,95.609 12.5569,94.609 12.5,93.5C 12.8333,92.5 13.5,91.8333 14.5,91.5 Z"/></g>
</svg>
