<svg width="24" height="25" viewBox="0 0 24 25" fill="none" xmlns="http://www.w3.org/2000/svg">
<path d="M11.9857 0.559326C13.6448 0.559326 15.2038 0.873986 16.6627 1.50331C18.1216 2.13263 19.3945 2.99079 20.4815 4.0778C21.5685 5.16481 22.4267 6.43299 23.056 7.88233C23.6853 9.33167 24 10.8859 24 12.545C24 14.2041 23.6853 15.7631 23.056 17.222C22.4267 18.6809 21.5685 19.9538 20.4815 21.0409C19.3945 22.1279 18.1216 22.986 16.6627 23.6153C15.2038 24.2447 13.6448 24.5593 11.9857 24.5593C10.3266 24.5593 8.77235 24.2447 7.323 23.6153C5.87366 22.986 4.60548 22.1279 3.51847 21.0409C2.43147 19.9538 1.5733 18.6809 0.943981 17.222C0.31466 15.7631 0 14.2041 0 12.545C0 10.8859 0.31466 9.33167 0.943981 7.88233C1.5733 6.43299 2.43147 5.16481 3.51847 4.0778C4.60548 2.99079 5.87366 2.13263 7.323 1.50331C8.77235 0.873986 10.3266 0.559326 11.9857 0.559326ZM16.5054 5.79413H13.9595C13.4636 5.79413 13.006 5.87995 12.5864 6.05158C12.1669 6.22321 11.7998 6.45206 11.4851 6.73811C11.1704 7.02417 10.9273 7.34836 10.7557 7.7107C10.584 8.07303 10.4982 8.43537 10.4982 8.79771V10.3138H8.23838V13.2888H10.4982V19.2959H13.5018V13.2888H15.733V10.3138H13.5018V9.54145C13.5018 9.3126 13.5924 9.13144 13.7735 8.99794C13.9547 8.86445 14.112 8.79771 14.2455 8.79771H16.5054V5.79413Z" fill="#01B14F"/>
</svg>
