<svg width="30" height="31" viewBox="0 0 30 31" fill="none" xmlns="http://www.w3.org/2000/svg">
<g clip-path="url(#clip0_305_696)">
<path d="M26.2498 3.34509H0.624756" stroke="white" stroke-width="1.25" stroke-linecap="round" stroke-linejoin="round"/>
<path d="M11.3125 11.5092H13.8125" stroke="white" stroke-width="1.25" stroke-miterlimit="10"/>
<path d="M10.0625 11.5092H5.6875" stroke="white" stroke-width="1.25" stroke-miterlimit="10"/>
<path d="M2.56274 14.0093H6.24984" stroke="white" stroke-width="1.25" stroke-miterlimit="10"/>
<path d="M7.49976 14.0093H11.2498" stroke="white" stroke-width="1.25" stroke-miterlimit="10"/>
<path d="M16.4136 17.2598L14.8511 19.1348L16.4136 21.0098" stroke="white" stroke-width="1.25" stroke-linecap="round" stroke-linejoin="round"/>
<path d="M22.3513 17.2598L23.9138 19.1348L22.3513 21.0098" stroke="white" stroke-width="1.25" stroke-linecap="round" stroke-linejoin="round"/>
<path d="M18.7574 21.0103L20.0074 17.2603" stroke="white" stroke-width="1.25" stroke-linecap="round" stroke-linejoin="round"/>
<path d="M19.2263 26.3225C23.1959 26.3225 26.4138 23.1046 26.4138 19.135C26.4138 15.1655 23.1959 11.9475 19.2263 11.9475C15.2568 11.9475 12.0388 15.1655 12.0388 19.135C12.0388 23.1046 15.2568 26.3225 19.2263 26.3225Z" stroke="white" stroke-width="1.25" stroke-miterlimit="10"/>
<path d="M24.1794 24.4001L29.3916 29.6123" stroke="white" stroke-width="1.25" stroke-linecap="round" stroke-linejoin="round"/>
<path d="M11.3125 11.5092H13.8125" stroke="white" stroke-width="1.25" stroke-miterlimit="10"/>
<path d="M10.0625 11.5092H5.6875" stroke="white" stroke-width="1.25" stroke-miterlimit="10"/>
<path d="M2.56274 14.0093H6.24984" stroke="white" stroke-width="1.25" stroke-miterlimit="10"/>
<path d="M7.49976 14.0093H11.2498" stroke="white" stroke-width="1.25" stroke-miterlimit="10"/>
<path d="M2.5625 18.9702H4.4375" stroke="white" stroke-width="1.25" stroke-miterlimit="10"/>
<path d="M5.6875 18.9702H9.9996" stroke="white" stroke-width="1.25" stroke-miterlimit="10"/>
<path d="M10.0625 21.4702H5.6875" stroke="white" stroke-width="1.25" stroke-miterlimit="10"/>
<path d="M2.56274 23.97H4.37484" stroke="white" stroke-width="1.25" stroke-miterlimit="10"/>
<path d="M5.62476 23.97H11.2498" stroke="white" stroke-width="1.25" stroke-miterlimit="10"/>
<path d="M5.62451 16.47H9.99951" stroke="white" stroke-width="1.25" stroke-miterlimit="10"/>
<path d="M10.0625 26.4702H5.6875" stroke="white" stroke-width="1.25" stroke-miterlimit="10"/>
<path d="M2.5625 6.47046H4.4375" stroke="white" stroke-width="1.25" stroke-miterlimit="10"/>
<path d="M5.6875 6.47046H17.4996" stroke="white" stroke-width="1.25" stroke-miterlimit="10"/>
<path d="M2.5625 6.47046H4.4375" stroke="white" stroke-width="1.25" stroke-miterlimit="10"/>
<path d="M5.6875 6.47046H17.4996" stroke="white" stroke-width="1.25" stroke-miterlimit="10"/>
<path d="M11.3125 8.97009H19.9996" stroke="white" stroke-width="1.25" stroke-miterlimit="10"/>
<path d="M10.0625 8.97009H5.6875" stroke="white" stroke-width="1.25" stroke-miterlimit="10"/>
<path d="M11.3125 8.97009H19.9996" stroke="white" stroke-width="1.25" stroke-miterlimit="10"/>
<path d="M10.0625 8.97009H5.6875" stroke="white" stroke-width="1.25" stroke-miterlimit="10"/>
<path d="M26.2498 12.7205V0.845459H0.624756V29.5955H22.4998" stroke="white" stroke-width="1.25" stroke-linecap="round" stroke-linejoin="round"/>
</g>
<defs>
<clipPath id="clip0_305_696">
<rect width="30" height="30" fill="white" transform="translate(-0.000244141 0.220337)"/>
</clipPath>
</defs>
</svg>
